<svg id="visual" viewBox="0 0 3840 2160" width="3840" height="2160" xmlns="http://www.w3.org/2000/svg" xmlns:xlink="http://www.w3.org/1999/xlink" version="1.1"><rect x="0" y="0" width="3840" height="2160" fill="#141414"></rect><defs><linearGradient id="grad1_0" x1="43.8%" y1="0%" x2="100%" y2="100%"><stop offset="14.444444444444446%" stop-color="#141414" stop-opacity="1"></stop><stop offset="85.55555555555554%" stop-color="#141414" stop-opacity="1"></stop></linearGradient></defs><defs><linearGradient id="grad2_0" x1="0%" y1="0%" x2="56.3%" y2="100%"><stop offset="14.444444444444446%" stop-color="#141414" stop-opacity="1"></stop><stop offset="85.55555555555554%" stop-color="#141414" stop-opacity="1"></stop></linearGradient></defs><g transform="translate(3840, 0)"><path d="M0 1188C-226.6 1167.8 -453.2 1147.6 -594 1028.8C-734.8 910.1 -790 692.9 -874.7 505C-959.4 317.1 -1073.7 158.6 -1188 0L0 0Z" fill="#94a5a6"></path></g><g transform="translate(0, 2160)"><path d="M0 -1188C176.2 -1104.2 352.3 -1020.4 538 -931.8C723.7 -843.3 918.9 -750.1 1028.8 -594C1138.8 -437.9 1163.4 -219 1188 0L0 0Z" fill="#94a5a6"></path></g></svg>